<svg xmlns="http://www.w3.org/2000/svg" width="88" height="68" fill="none" viewBox="0 0 88 68">
  <path fill="#EA8833" d="M80 2C75.56.6 70.68 0 66 0c-7.8 0-16.2 1.6-22 6-5.8-4.4-14.2-6-22-6C14.2 0 5.8 1.6 0 6v58.6c0 1 1 2 2 2 .4 0 .6-.2 1-.2C8.4 63.8 16.2 62 22 62c7.8 0 16.2 1.6 22 6 5.4-3.4 15.2-6 22-6 6.6 0 13.4 1.2 19 4.2.4.2.6.2 1 .2 1 0 2-1 2-2V6c-2.4-1.8-5-3-8-4Zm0 54c-4.4-1.4-9.2-2-14-2-6.8 0-16.6 2.6-22 6V14c5.4-3.4 15.2-6 22-6 4.8 0 9.6.6 14 2v46Z"/>
  <path fill="#EA8833" d="M66 24c3.52 0 6.92.36 10 1.04v-6.08c-3.16-.6-6.56-.96-10-.96-6.8 0-12.96 1.16-18 3.32v6.64C52.52 25.4 58.8 24 66 24Zm-18 7.96v6.64c4.52-2.56 10.8-3.96 18-3.96 3.52 0 6.92.36 10 1.04V29.6c-3.16-.6-6.56-.96-10-.96-6.8 0-12.96 1.2-18 3.32Zm18 7.36c-6.8 0-12.96 1.16-18 3.32v6.64c4.52-2.56 10.8-3.96 18-3.96 3.52 0 6.92.36 10 1.04v-6.08c-3.16-.64-6.56-.96-10-.96Z"/>
</svg>
